<?xml version="1.0" standalone="no"?>
<!DOCTYPE svg PUBLIC "-//W3C//DTD SVG 20010904//EN"
 "http://www.w3.org/TR/2001/REC-SVG-20010904/DTD/svg10.dtd">
<svg version="1.0" xmlns="http://www.w3.org/2000/svg"
 width="400.000000pt" height="400.000000pt" viewBox="0 0 400.000000 400.000000"
 preserveAspectRatio="xMidYMid meet">
<metadata>
Created by potrace 1.11, written by Peter Selinger 2001-2013
</metadata>
<g transform="translate(0.000000,400.000000) scale(0.100000,-0.100000)"
fill="#000000" stroke="none">
<path d="M1740 3196 c-135 -79 -392 -228 -572 -333 l-326 -189 311 -186 c172
-103 432 -258 578 -346 l267 -160 503 296 c277 162 543 318 591 345 l87 51
-27 16 c-109 66 -1151 650 -1158 649 -5 0 -119 -65 -254 -143z m769 -214 c19
-9 36 -22 38 -27 2 -6 -30 -30 -71 -55 -42 -25 -71 -49 -66 -54 5 -5 38 -7 74
-4 54 3 71 9 104 35 33 27 40 29 56 17 24 -17 13 -32 -53 -67 -88 -48 -181
-45 -263 9 -50 32 -61 83 -27 120 41 44 146 57 208 26z m-327 -126 c67 -40
143 -83 168 -96 57 -28 55 -27 40 -45 -7 -9 -21 -13 -31 -10 -11 4 -19 0 -23
-13 -11 -32 -82 -65 -143 -64 -73 1 -153 39 -178 86 -18 33 -18 35 -1 61 10
15 35 35 57 44 21 9 39 19 39 22 0 4 -24 17 -54 30 -51 22 -53 25 -39 42 9 9
22 17 29 17 6 0 68 -33 136 -74z m-177 -210 c76 -45 86 -95 31 -144 -62 -54
-176 -55 -260 -2 -78 50 -72 114 13 157 60 31 152 26 216 -11z m-375 -116 c17
-11 13 -16 -31 -38 -50 -26 -58 -46 -30 -76 49 -52 162 -55 224 -6 23 18 57
19 57 1 0 -16 -48 -51 -89 -66 -184 -65 -360 96 -196 180 35 17 45 18 65 5z"/>
<path d="M2352 2940 c-25 -23 -25 -38 0 -53 11 -8 28 -3 63 19 26 16 48 34 49
39 0 6 -19 11 -44 13 -35 2 -50 -2 -68 -18z"/>
<path d="M2098 2794 c-21 -11 -28 -22 -28 -44 0 -58 122 -99 193 -65 64 30 57
44 -50 99 -60 30 -77 31 -115 10z"/>
<path d="M1808 2624 c-58 -31 -24 -86 69 -114 50 -15 104 -7 128 20 18 20 18
21 -2 48 -22 30 -92 61 -138 61 -16 0 -42 -7 -57 -15z"/>
<path d="M2810 2299 c-223 -132 -479 -283 -568 -336 -90 -53 -166 -101 -168
-107 -2 -6 -3 -282 -2 -613 l3 -603 320 190 c176 104 436 258 578 341 l257
152 0 609 c0 334 -3 608 -7 608 -5 0 -190 -109 -413 -241z m270 -347 l-39
-122 39 -70 c22 -38 40 -72 40 -74 0 -6 -84 -56 -93 -56 -4 0 -15 18 -24 41
l-16 41 -21 -68 c-20 -63 -25 -70 -70 -96 -27 -16 -46 -23 -44 -16 3 7 22 63
42 125 l37 111 -36 72 c-20 40 -34 77 -32 84 3 6 23 21 46 34 l41 23 19 -43
c20 -47 18 -48 41 40 9 35 20 49 57 72 26 17 48 29 49 27 2 -1 -15 -58 -36
-125z m-319 -139 c10 -12 14 -49 13 -142 0 -108 -3 -132 -21 -166 -11 -22 -29
-47 -39 -56 -24 -21 -166 -109 -176 -109 -5 0 -8 89 -8 198 l0 197 83 47 c87
51 126 59 148 31z m-342 -196 c52 -63 -14 -214 -116 -266 -21 -11 -23 -19 -23
-89 l0 -77 -45 -27 -45 -28 0 203 0 202 83 47 c84 49 126 59 146 35z"/>
<path d="M2632 1718 c-15 -15 -17 -248 -2 -248 5 0 19 10 30 22 19 20 20 33
18 128 -2 84 -6 105 -18 108 -9 1 -21 -3 -28 -10z"/>
<path d="M2298 1519 c-13 -7 -18 -23 -18 -54 0 -25 4 -45 9 -45 18 0 51 53 51
81 0 30 -13 36 -42 18z"/>
</g>
</svg>
